<?xml version="1.0" encoding="UTF-8" standalone="no"?>
<svg
   xmlns:dc="http://purl.org/dc/elements/1.1/"
   xmlns:cc="http://creativecommons.org/ns#"
   xmlns:rdf="http://www.w3.org/1999/02/22-rdf-syntax-ns#"
   xmlns:svg="http://www.w3.org/2000/svg"
   xmlns="http://www.w3.org/2000/svg"
   xmlns:sodipodi="http://sodipodi.sourceforge.net/DTD/sodipodi-0.dtd"
   xmlns:inkscape="http://www.inkscape.org/namespaces/inkscape"
   version="1.1"
   id="svg2"
   xml:space="preserve"
   width="64"
   height="64"
   viewBox="0 0 64 64"
   sodipodi:docname="gt-r-logo-vector.svg"
   inkscape:version="1.0 (4035a4fb49, 2020-05-01)"><metadata
     id="metadata8"><rdf:RDF><cc:Work
         rdf:about=""><dc:format>image/svg+xml</dc:format><dc:type
           rdf:resource="http://purl.org/dc/dcmitype/StillImage" /><dc:title /></cc:Work></rdf:RDF></metadata><defs
     id="defs6" /><sodipodi:namedview
     inkscape:snap-bbox-edge-midpoints="true"
     inkscape:snap-center="true"
     inkscape:snap-bbox-midpoints="true"
     inkscape:snap-bbox="true"
     inkscape:document-rotation="0"
     pagecolor="#ffffff"
     bordercolor="#666666"
     borderopacity="1"
     objecttolerance="10"
     gridtolerance="10"
     guidetolerance="10"
     inkscape:pageopacity="0"
     inkscape:pageshadow="2"
     inkscape:window-width="968"
     inkscape:window-height="1044"
     id="namedview4"
     showgrid="false"
     inkscape:snap-page="true"
     inkscape:snap-object-midpoints="true"
     units="px"
     inkscape:zoom="5.7995169"
     inkscape:cx="32.441387"
     inkscape:cy="38.402531"
     inkscape:window-x="16"
     inkscape:window-y="16"
     inkscape:window-maximized="0"
     inkscape:current-layer="g12" /><g
     id="g10"
     inkscape:groupmode="layer"
     inkscape:label="ink_ext_XXXXXX"
     transform="matrix(1.3333333,0,0,-1.3333333,0,596.89333)"><g
       id="g12"
       transform="matrix(0.1,0,0,0.1,-17.77024,-104.8979)"><g
         transform="translate(2.0000002e-6,6.060191)"
         id="g839"><path
           id="path158"
           style="fill:#dfdfdf;fill-opacity:1;fill-rule:evenodd;stroke:none;stroke-width:0.400195"
           d="m 508.52317,5244.6075 c 0,0 16.90926,-1.0551 16.90926,12.9278 0,13.7437 -16.90926,12.3508 -16.90926,12.3508 l -171.1757,0.029 0.13212,-25.2785 z m 65.86102,-57.9792 -5.70895,-0.1319 c 0,0 3.8474,-3.4205 21.58446,-22.2289 28.13288,-29.8447 67.44271,-27.1043 67.44271,-27.1043 V 5088.683 H 522.65763 l -90.67113,92.9464 h -95.3852 c 0,0 0,-7.7641 0,-18.5488 0.40806,-6.0127 -3.81634,-25.9174 25.55627,-25.9174 0,-1.5577 0,-48.4637 0,-48.4637 l -161.97684,-0.017 c 0,0 -0.10881,48.2165 0,48.2165 31.33907,0 31.33907,30.7884 31.33907,30.7884 0,0 0,38.2023 0,78.4114 0,40.2051 -31.33907,39.4633 -31.33907,39.4633 v 48.9581 h 341.12719 c 0,0 90.74888,3.7627 90.74888,-70.7627 0,-72.6419 -57.67261,-77.1297 -57.67261,-77.1297 v 0 0" /><path
           id="path160"
           style="fill:#dfdfdf;fill-opacity:1;fill-rule:evenodd;stroke:none;stroke-width:0.400195"
           d="m 430.43973,5467.0706 v -24.916 h 87.24343 v -90.3049 h 59.55356 v 90.3049 h 80.94762 v 24.916 H 430.43973 v 0" /><path
           id="path162"
           style="fill:#dfdfdf;fill-opacity:1;fill-rule:evenodd;stroke:none;stroke-width:0.400195"
           d="m 177.70241,5402.2504 c 0,-54.2785 69.59575,-50.4007 88.74741,-50.4007 19.14387,0 146.37723,0 146.37723,0 v 72.0652 H 303.77766 v -16.9006 h 50.32751 v -34.6993 h -87.65535 c 0,0 -31.03984,0.4451 -31.03984,34.6993 0,34.2543 31.03984,35.1403 31.03984,35.1403 h 146.37723 v 24.916 c 0,0 -65.0138,0 -146.37723,0 0,0 -88.72798,4.974 -88.72798,-48.1671 l -0.0194,-16.6531 v 0" /><path
           id="path164"
           style="fill:#f62427;fill-opacity:1;fill-rule:evenodd;stroke:none;stroke-width:0.400186"
           d="m 513.47671,5229.067 c 0,0 25.99806,0 25.99806,28.4683 0,28.4807 -26.85301,28.0272 -26.85301,28.0272 H 323.05753 v -56.4955 z m 33.80912,-31.18 h -12.7464 c 0,0 20.51863,-18.45 43.71863,-43.0444 25.41516,-26.9682 65.32548,-31.6951 65.32548,-31.6951 v -18.6807 H 528.67137 l -90.19651,93.4202 h -115.3396 v -42.2656 c 0,0 0,-32.4739 24.75448,-32.4739 0,-0.7829 0,-18.6807 0,-18.6807 H 214.94605 c 0,0 -0.11659,18.6807 0,18.6807 29.37898,0 29.37898,32.4739 29.37898,32.4739 0,0 0,66.7324 0,101.8768 0,35.1402 -29.37898,39.591 -29.37898,39.591 v 20.0201 h 319.59338 c 0,0 81.76365,5.5263 81.76365,-59.6111 0,-63.4973 -69.01725,-59.6112 -69.01725,-59.6112 v 0 0" /></g></g></g></svg>
